<svg xmlns="http://www.w3.org/2000/svg" viewBox="0 0 187.85 33.88"><defs><style>.cls-1{fill:#4863ae;}.cls-2{fill:#b0b0b0;opacity:0.49;}</style></defs><title>Asset 11</title><g id="Layer_2" data-name="Layer 2"><g id="Layer_1-2" data-name="Layer 1"><path d="M21.78,28.62a18,18,0,0,1-7.16,1.24C5,29.86,0,23.81,0,15.86,0,6.34,6.79,1,15.24,1a16.41,16.41,0,0,1,6.87,1.24l-1.28,5a13.56,13.56,0,0,0-5.3-1c-5,0-8.9,3-8.9,9.24,0,5.59,3.31,9.11,8.94,9.11a15.92,15.92,0,0,0,5.26-.91Z"/><path d="M25.59,0h6.29V29.4H25.59Z"/><path d="M37,29.4V9.15h6.3V29.4Z"/><path d="M63.52,28.91a15.39,15.39,0,0,1-5.64.95c-6.54,0-10.72-4-10.72-10.4,0-5.92,4.06-10.76,11.59-10.76a14.83,14.83,0,0,1,4.81.78l-1,4.68A8.61,8.61,0,0,0,59,13.54a5.24,5.24,0,0,0-5.42,5.67,5.27,5.27,0,0,0,5.55,5.68,8.94,8.94,0,0,0,3.6-.66Z"/><path d="M109.52,22.9c0,2.65.08,4.8.16,6.5h-5.46l-.29-2.86h-.13a7.19,7.19,0,0,1-6.33,3.32c-4.1,0-7.13-2.57-7.13-8.82V9.15h6.34V20c0,2.94.95,4.72,3.15,4.72A3.4,3.4,0,0,0,103,22.57a3.63,3.63,0,0,0,.2-1.37v-12h6.34Z"/><path d="M114.57,15.61c0-2.52-.09-4.68-.17-6.46h5.47l.29,2.78h.12a7.4,7.4,0,0,1,6.25-3.23c4.15,0,7.25,2.73,7.25,8.69v12h-6.29V18.18c0-2.61-.91-4.39-3.19-4.39a3.36,3.36,0,0,0-3.19,2.36,4.35,4.35,0,0,0-.25,1.57V29.4h-6.29Z"/><path d="M145.62,3.64V9.15h4.51v4.64h-4.51v7.33c0,2.44.58,3.56,2.49,3.56a8.25,8.25,0,0,0,1.86-.16l0,4.76a12.19,12.19,0,0,1-4.1.58,6.58,6.58,0,0,1-4.72-1.78c-1.16-1.2-1.74-3.15-1.74-6V13.79h-2.69V9.15h2.69V5.34Z"/><path d="M158.42,21.29c.2,2.6,2.77,3.85,5.71,3.85a17.81,17.81,0,0,0,5.59-.83l.83,4.26a19.94,19.94,0,0,1-7.33,1.29c-6.88,0-10.81-4-10.81-10.36,0-5.13,3.19-10.8,10.23-10.8,6.54,0,9,5.09,9,10.1a15.28,15.28,0,0,1-.21,2.49ZM165.83,17c0-1.53-.67-4.1-3.56-4.1-2.65,0-3.73,2.4-3.9,4.1Z"/><path d="M175.43,15.82c0-3-.08-4.93-.16-6.67h5.42l.21,3.73h.16a6,6,0,0,1,5.47-4.18,6.63,6.63,0,0,1,1.32.08v6a6.46,6.46,0,0,0-1.69-.2,4,4,0,0,0-4.31,3.18,7.8,7.8,0,0,0-.12,1.41V29.4h-6.3Z"/><path class="cls-1" d="M43.46,3.52a3.17,3.17,0,0,1-3.4,3.15,3.08,3.08,0,0,1-3.27-3.15A3.08,3.08,0,0,1,40.1.33,3.17,3.17,0,0,1,43.46,3.52Z"/><path class="cls-1" d="M83.76,6H85.6a1,1,0,0,1,1,1V9.29a0,0,0,0,1,0,0H82.79a0,0,0,0,1,0,0V6.94a1,1,0,0,1,1-1Z" transform="translate(17.56 -44.56) rotate(32.72)"/><path class="cls-1" d="M66.45,6h3.79a0,0,0,0,1,0,0V8.32a1,1,0,0,1-1,1H67.42a1,1,0,0,1-1-1V6a0,0,0,0,1,0,0Z" transform="translate(129.96 -22.89) rotate(147.28)"/><path class="cls-1" d="M77.92,8.75V6.82h1.86V3.09a1,1,0,0,0-1-1h-4.6a1,1,0,0,0-1,1V6.82H75.1v2c-5.57.65-9.17,4.65-9.17,10.62,0,6.55,4.55,10.44,10.48,10.44,5.42,0,10.68-3.4,10.68-10.81C87.09,13.36,83.47,9.26,77.92,8.75ZM76.57,25.34c-2.69,0-4.14-2.61-4.14-6.08,0-3,1.12-6.09,4.14-6.09,2.86,0,4,3.06,4,6.09C80.59,22.9,79,25.34,76.57,25.34Z"/><ellipse class="cls-2" cx="76.51" cy="32.99" rx="6.49" ry="0.89"/></g></g></svg>